# xmcd
#
# Track frame offsets: 
#        150
#        17840
#        40797
#        56447
#        75887
#        92772
#        123495
#        139477
#        150932
#        161995
#        181882
#
# Disc length: 2597 seconds
#
# Revision: 0
# Processed by: cddbd v1.5.1PL2 Copyright (c) Steve Scherf et al.
# Submitted via: ExactAudioCopy v0.95b4
#
DISCID=820a230b
DTITLE=Randy Sabien - The Sound Of Fish Dreaming
DYEAR=1993
DGENRE=Blues
TTITLE0=Westward Across The Prairie Into A Dream
TTITLE1=Roaring Judy
TTITLE2=El Dorado
TTITLE3=Jokerville
TTITLE4=The Sound Of Fish Dreaming
TTITLE5=Big Horn Balloon
TTITLE6=Elk Avenue
TTITLE7=Jack's Cabin Cutoff
TTITLE8=Donita's
TTITLE9=For The Children
TTITLE10=Two Coyotes Say Goodbye In Cement Creek Canyon
EXTD=
EXTT0=
EXTT1=
EXTT2=
EXTT3=
EXTT4=
EXTT5=
EXTT6=
EXTT7=
EXTT8=
EXTT9=
EXTT10=
PLAYORDER=
